<svg width="360" height="360" viewBox="0 0 360 360" fill="none" xmlns="http://www.w3.org/2000/svg">
  <rect width="360" height="360" rx="32" fill="#FFF8EE"/>
  <rect x="28" y="28" width="304" height="304" rx="24" fill="#FFFFFF" stroke="#E8E0F2" stroke-width="8"/>
  <rect x="56" y="56" width="72" height="72" rx="12" fill="#5E3A73"/>
  <rect x="72" y="72" width="40" height="40" rx="8" fill="#FFF8EE"/>
  <rect x="232" y="56" width="72" height="72" rx="12" fill="#5E3A73"/>
  <rect x="248" y="72" width="40" height="40" rx="8" fill="#FFF8EE"/>
  <rect x="56" y="232" width="72" height="72" rx="12" fill="#5E3A73"/>
  <rect x="72" y="248" width="40" height="40" rx="8" fill="#FFF8EE"/>
  <rect x="162" y="64" width="18" height="18" rx="4" fill="#D8B36A"/>
  <rect x="194" y="64" width="18" height="18" rx="4" fill="#5E3A73"/>
  <rect x="162" y="96" width="18" height="18" rx="4" fill="#5E3A73"/>
  <rect x="194" y="96" width="18" height="18" rx="4" fill="#D8B36A"/>
  <rect x="160" y="154" width="24" height="24" rx="5" fill="#5E3A73"/>
  <rect x="194" y="154" width="18" height="18" rx="4" fill="#D8B36A"/>
  <rect x="224" y="154" width="24" height="24" rx="5" fill="#5E3A73"/>
  <rect x="160" y="188" width="18" height="18" rx="4" fill="#D8B36A"/>
  <rect x="194" y="188" width="24" height="24" rx="5" fill="#5E3A73"/>
  <rect x="230" y="190" width="18" height="18" rx="4" fill="#D8B36A"/>
  <rect x="154" y="224" width="24" height="24" rx="5" fill="#5E3A73"/>
  <rect x="192" y="224" width="18" height="18" rx="4" fill="#D8B36A"/>
  <rect x="224" y="224" width="24" height="24" rx="5" fill="#5E3A73"/>
  <rect x="154" y="256" width="18" height="18" rx="4" fill="#D8B36A"/>
  <rect x="188" y="258" width="24" height="24" rx="5" fill="#5E3A73"/>
  <rect x="226" y="258" width="18" height="18" rx="4" fill="#D8B36A"/>
  <text x="180" y="330" text-anchor="middle" fill="#5E3A73" font-family="Arial, sans-serif" font-size="18" font-weight="700">PAYMENT QR</text>
</svg>
